<svg version="1.1" id="Layer_1" xmlns="http://www.w3.org/2000/svg" xmlns:xlink="http://www.w3.org/1999/xlink" x="0px" y="0px"
	 width="100%" viewBox="0 0 864 736" enable-background="new 0 0 864 736" xml:space="preserve">
<path fill="#000000" opacity="1.000000" stroke="none" 
	d="
M644.889893,584.680420 
	C623.097900,641.078796 583.271484,678.187988 526.995667,698.175049 
	C501.733887,707.146973 475.660461,711.828247 448.930206,713.435303 
	C405.282715,716.059509 362.830688,710.395996 322.198090,694.175232 
	C257.413147,668.312866 218.236710,620.805481 204.895447,552.254578 
	C203.119614,543.129944 202.177032,533.838013 201.712845,524.529968 
	C201.433472,518.927856 201.091232,518.604797 195.429977,519.975220 
	C154.719086,529.830078 114.013680,539.707642 73.303001,549.563416 
	C64.347412,551.731506 59.703350,548.914124 57.606243,539.903687 
	C55.535591,531.006836 53.523106,522.093384 51.704651,513.142639 
	C51.057236,509.956024 49.955387,508.456543 46.307041,508.114197 
	C30.121243,506.595367 18.617702,494.707855 16.637529,478.560791 
	C14.768576,463.320618 18.747747,450.542480 31.413486,441.202148 
	C34.302826,439.071381 32.782619,436.622345 32.314930,434.442688 
	C28.794622,418.036072 25.061483,401.675293 21.454784,385.286987 
	C19.789473,377.720093 22.391893,373.439331 29.793062,371.570496 
	C39.137482,369.211029 48.492149,366.885651 57.881611,364.715271 
	C60.488876,364.112579 61.346889,363.185150 61.033665,360.307770 
	C59.742931,348.450653 63.878616,342.502106 75.547478,339.685974 
	C87.169785,336.881073 98.865685,334.360504 110.581451,331.970886 
	C118.275101,330.401642 125.829491,334.666351 128.734512,342.724091 
	C130.394516,347.328491 132.482330,347.942017 136.844940,346.717987 
	C145.638214,344.250854 154.593063,342.358398 163.484451,340.242340 
	C173.557434,337.845032 177.897293,340.478333 180.066437,350.434326 
	C183.884491,367.958496 187.630692,385.498291 191.443604,403.023621 
	C191.719650,404.292450 192.292328,405.496735 192.920990,407.281586 
	C199.033752,404.008057 203.935867,399.370911 209.697479,396.276184 
	C217.604797,392.028931 220.782776,385.560516 222.863449,377.130371 
	C231.705673,341.304596 240.009872,305.318268 251.581085,270.220245 
	C259.825684,245.212509 269.067017,220.608856 281.096619,197.129211 
	C281.541107,196.261642 281.814819,195.306564 282.343658,193.937958 
	C276.939789,193.010254 271.744415,192.315796 266.641602,191.198502 
	C257.802795,189.263214 249.804504,185.577820 244.346680,178.024780 
	C237.993408,169.232513 239.651642,157.182022 248.667206,149.212082 
	C258.795532,140.258438 270.890991,134.708267 283.693817,130.576645 
	C294.990875,126.930969 306.769867,125.810501 318.373596,123.815834 
	C321.253265,123.320824 322.705048,122.285614 323.850739,119.718880 
	C341.424255,80.348251 373.576874,60.914436 414.541382,53.566944 
	C421.265015,52.360977 428.000275,51.506943 434.855347,51.559357 
	C438.568298,51.587749 442.129333,51.016441 444.376801,47.325089 
	C445.013702,46.278992 446.355408,45.316448 447.551178,45.011879 
	C455.728668,42.929028 463.911896,42.181992 471.803955,46.161308 
	C473.460785,46.996704 475.000488,48.336170 475.425781,50.143181 
	C476.678070,55.463551 480.721527,56.561790 485.280945,57.698162 
	C507.975800,63.354557 529.284119,72.126343 547.391724,87.333221 
	C568.869446,105.370331 580.806091,128.832123 585.295471,156.238510 
	C587.152405,167.574677 588.388733,178.999680 586.532104,190.499008 
	C586.220154,192.431442 586.928894,194.133728 587.715576,195.778824 
	C603.193420,228.146194 611.925171,262.620575 619.146240,297.514496 
	C625.509338,328.262360 633.197998,358.691101 640.371582,389.244720 
	C640.790894,391.030396 641.731201,392.261780 643.238708,393.106903 
	C663.243408,404.321808 693.964966,400.022675 702.579712,371.390350 
	C704.002319,366.662079 701.349182,363.369873 696.406494,364.428162 
	C683.848755,367.116852 672.276917,363.248840 660.896667,359.138794 
	C645.582153,353.607880 640.560303,340.761078 639.841187,325.920807 
	C638.987793,308.308075 642.542114,291.462433 651.263916,275.999298 
	C656.471680,266.766327 663.549927,259.466217 674.225159,256.451019 
	C678.354431,255.284744 682.488281,255.403336 686.597351,256.005096 
	C690.367859,256.557251 694.067444,257.594757 697.796692,258.425812 
	C713.993225,262.035187 721.594482,270.450378 723.261597,287.104248 
	C723.590027,290.385620 724.832642,291.659149 727.992554,292.256226 
	C752.390808,296.866486 752.381470,296.915833 772.558167,310.293152 
	C774.813843,309.567200 774.919983,307.288849 775.692139,305.579742 
	C779.165039,297.893860 783.480164,290.836487 790.336060,285.678589 
	C797.039734,280.635101 804.395325,278.398956 812.837036,280.446930 
	C818.159668,281.738220 823.591553,282.572571 828.953857,283.708801 
	C843.012512,286.687775 850.034912,293.755676 852.181763,308.077911 
	C855.813782,332.307648 851.344238,355.165192 838.898376,376.231995 
	C829.147339,392.737305 816.943481,397.369781 798.294128,392.516571 
	C787.894958,389.810364 777.550476,386.994202 771.563965,376.767059 
	C771.035278,375.863831 770.019470,375.081177 769.067017,375.788452 
	C764.719360,379.017151 758.716675,380.129364 757.247192,386.885651 
	C752.823792,407.223755 743.131470,424.784943 728.489563,439.653534 
	C710.275513,458.149506 688.169800,468.173615 662.405090,469.963989 
	C657.252136,470.322083 656.456726,471.518372 656.985596,476.742279 
	C660.697693,513.405823 658.310974,549.493958 644.889893,584.680420 
M281.135864,234.506821 
	C265.885193,271.908997 255.612900,310.805817 246.179031,349.976379 
	C244.919128,355.207581 247.220840,358.550507 249.719299,362.236908 
	C272.048645,395.183289 301.153778,420.186249 337.642578,436.191681 
	C370.988953,450.818756 405.027649,453.967987 440.213531,442.291412 
	C473.617798,431.206055 502.862854,413.071930 530.450623,391.797974 
	C555.005493,372.862823 577.840271,351.846619 602.080811,332.546112 
	C607.601257,328.150787 608.607300,323.746613 607.149048,317.470306 
	C604.741455,307.107971 602.700745,296.657410 600.651733,286.215363 
	C595.184082,258.352112 587.342773,231.247467 575.439026,205.384918 
	C573.721863,201.654114 571.421631,199.356812 567.460632,197.904312 
	C550.259399,191.596634 532.901062,185.806427 515.324219,180.638214 
	C512.032837,179.670456 509.496033,179.970932 506.496826,181.800354 
	C482.727173,196.298996 457.078094,201.522064 429.410645,197.551468 
	C411.454773,194.974579 395.790741,187.346329 380.920044,177.531403 
	C367.684967,168.796005 354.127350,160.670212 338.952087,155.640137 
	C336.694763,154.891907 334.756561,154.247330 332.513550,156.167694 
	C326.934662,160.943985 321.511261,165.831406 316.763519,171.466751 
	C301.104309,190.053589 290.702271,211.606339 281.135864,234.506821 
M270.622772,644.875061 
	C298.843506,669.575134 331.966736,683.939453 369.103119,692.059631 
	C367.490936,689.647217 365.614502,687.588501 369.215942,687.147949 
	C373.445618,686.630493 378.453064,686.796753 380.521881,690.687073 
	C382.824554,695.017212 386.270538,694.529724 389.589783,695.337708 
	C390.652527,694.071594 388.536438,694.237549 389.007751,693.191101 
	C401.816589,689.826599 414.894897,693.056824 427.869293,692.330078 
	C431.019073,692.153687 434.981842,693.059814 437.337219,694.980774 
	C441.982086,698.768738 446.956512,697.881409 451.998047,697.744202 
	C464.673889,697.399109 477.130371,695.242249 489.472931,692.581848 
	C518.045776,686.423096 544.969788,676.253906 569.088623,659.322571 
	C598.898865,638.395935 618.903015,610.185181 631.022522,576.157166 
	C633.192261,570.065125 635.773254,563.951721 636.178284,556.797302 
	C633.950684,557.501526 632.342224,557.901489 630.815979,558.508423 
	C594.249451,573.048645 556.979126,585.051636 517.906555,590.955078 
	C488.107910,595.457336 458.193207,598.611694 428.069122,599.213867 
	C413.103027,599.513062 398.087158,600.143494 383.141876,598.382507 
	C380.377655,598.056885 378.451538,598.732971 377.253113,601.614807 
	C375.724945,605.289551 372.699341,607.361389 368.627747,607.330078 
	C358.474152,607.252075 348.312531,607.659668 338.178131,606.448120 
	C333.556366,605.895630 330.912445,603.202515 330.894257,599.041626 
	C330.871368,593.785156 328.257507,592.179321 323.745270,591.423523 
	C290.730255,585.893555 259.024017,576.170410 228.867264,561.538025 
	C227.419434,560.835510 225.810074,559.523865 224.219543,560.711365 
	C222.418350,562.056030 223.252182,564.088928 223.760971,565.784973 
	C232.760880,595.785706 246.639893,622.921448 270.622772,644.875061 
M450.681152,461.137299 
	C449.564880,462.590729 448.478973,464.068695 447.327698,465.493835 
	C434.294983,481.626617 419.517181,496.021179 403.614197,509.288025 
	C401.506042,511.046753 399.108215,512.494995 402.083618,515.590088 
	C410.248474,524.083252 411.670380,534.792908 411.126740,545.805847 
	C410.704529,554.357605 408.545013,562.639526 403.344604,569.714294 
	C399.244629,575.291931 393.508087,577.993408 386.611542,578.346375 
	C385.275696,578.414795 384.538818,579.346558 384.473724,580.685181 
	C384.407257,582.052002 385.213776,582.991943 386.420013,583.244629 
	C388.031586,583.582153 389.712616,583.715576 391.363892,583.716553 
	C410.015228,583.727356 428.652740,584.084839 447.311218,582.937256 
	C466.922913,581.731140 486.467682,579.990540 505.932861,577.466370 
	C546.461426,572.210693 584.976379,559.544983 622.893860,544.877747 
	C634.212097,540.499573 638.082886,525.030823 630.568970,515.210388 
	C628.638855,512.687744 626.218506,510.729980 622.818604,510.138092 
	C608.867004,507.709167 596.756836,501.945862 586.306091,491.984375 
	C578.154419,484.214264 572.492615,475.450256 569.753479,464.664246 
	C562.736511,437.033722 568.013184,411.169006 581.258301,386.553497 
	C583.350891,382.664642 585.139587,378.887146 585.300598,374.409210 
	C585.365601,372.599335 586.261841,370.603088 584.138855,369.514038 
	C582.097168,368.466675 580.665710,370.141571 579.324646,371.256622 
	C571.255127,377.966217 563.316650,384.834412 555.212769,391.501770 
	C527.967102,413.917725 499.105255,433.868256 466.640839,448.062469 
	C460.143250,450.903320 454.605499,454.298157 450.681152,461.137299 
M327.673950,485.717255 
	C322.361847,475.904083 316.530914,466.155853 313.457947,455.499634 
	C309.718903,442.533569 302.210205,433.795349 290.993500,426.660675 
	C279.641754,419.440094 270.030609,409.757538 260.489410,400.197723 
	C256.617676,396.318512 253.361145,397.035919 251.541794,402.169861 
	C250.714050,404.505646 250.265625,406.998688 249.859055,409.455811 
	C249.140289,413.799896 246.965942,417.000427 242.640396,418.099762 
	C235.575745,419.895233 232.791977,424.768219 231.998230,431.507141 
	C231.628738,434.644165 231.031311,438.140228 228.260330,439.964722 
	C224.014679,442.760223 222.718460,446.771973 222.039871,451.348419 
	C221.356339,455.957947 220.799820,460.608490 219.738510,465.135773 
	C216.325974,479.692963 217.433243,494.305664 219.880829,508.720367 
	C221.345291,517.344971 224.020859,525.783508 225.360504,534.509583 
	C225.956558,538.392151 227.510254,542.583069 231.056824,544.735779 
	C240.167862,550.265930 249.767578,554.846863 260.337311,556.956604 
	C267.311707,558.348755 274.615112,558.920349 280.632019,563.069641 
	C283.694244,565.181396 286.699799,567.078064 290.257843,568.126038 
	C300.001556,570.995789 309.867310,573.346008 319.866272,575.127319 
	C327.256592,576.443909 330.342041,574.185974 330.567688,566.753662 
	C330.799927,559.101868 330.859070,551.448486 331.698975,543.830383 
	C332.894958,532.982361 334.306580,522.197937 343.581818,514.659729 
	C346.155731,512.567810 344.607635,510.938812 343.221344,509.216339 
	C337.462128,502.060455 332.665375,494.263397 327.673950,485.717255 
M166.762405,365.545654 
	C166.291199,363.439148 165.912506,361.306091 165.317978,359.234985 
	C164.882523,357.717987 164.068375,356.524231 162.077011,356.981567 
	C153.053574,359.054077 143.963104,360.871826 135.288757,363.775452 
	C135.426270,376.205475 131.283646,382.362823 120.859795,384.929352 
	C110.216721,387.549927 99.523720,389.993500 88.790848,392.216583 
	C77.319267,394.592651 72.912529,392.433441 67.312164,382.147675 
	C66.198196,380.101746 65.132286,379.214386 62.617424,379.897095 
	C55.887875,381.723999 49.087551,383.299286 42.288258,384.856232 
	C39.085358,385.589600 37.985561,386.949493 38.843208,390.483307 
	C41.855724,402.895966 44.702003,415.357391 47.199535,427.882416 
	C48.200127,432.900360 49.843723,436.095123 55.650223,435.884827 
	C57.900032,435.803314 60.078026,437.233429 61.885029,438.780212 
	C67.002449,443.160797 69.712997,448.711731 69.290382,455.465881 
	C69.026215,459.687866 70.101341,462.811523 73.143333,466.085358 
	C81.944427,475.557404 81.005951,491.548920 70.904671,499.609619 
	C66.521599,503.107269 65.925217,506.323029 67.379623,511.068634 
	C69.594185,518.294556 70.126167,525.981384 72.873383,533.213806 
	C74.121620,533.001770 74.939499,532.912720 75.732544,532.720947 
	C114.795235,523.275757 153.853195,513.810852 192.921280,504.388031 
	C196.218475,503.592773 196.964951,501.951599 196.217987,498.604340 
	C186.383896,454.536926 176.685410,410.439240 166.762405,365.545654 
M597.507935,389.012573 
	C586.717468,406.097839 581.643982,424.606476 582.192932,444.938751 
	C582.992310,474.546875 609.435730,498.454010 639.014343,495.731354 
	C642.527649,495.407959 643.705627,493.629456 643.419922,490.488007 
	C642.892761,484.690308 642.184631,478.908417 641.705139,473.107300 
	C641.446533,469.977631 640.044189,468.489441 636.862427,467.890350 
	C626.850647,466.005127 617.130737,463.096527 608.038391,458.382812 
	C604.502014,456.549438 600.734985,455.007660 598.033508,451.912872 
	C594.221313,447.545502 596.038818,441.166962 601.463562,439.473267 
	C604.452393,438.540100 606.485046,440.403198 608.810547,441.661469 
	C637.257141,457.053619 666.443726,460.078003 695.694519,444.738251 
	C721.064819,431.433502 736.156555,409.649963 742.578491,381.929138 
	C744.055847,375.551941 746.148438,370.482666 752.634521,367.642578 
	C758.229004,365.192841 762.374939,360.677856 765.491638,355.411499 
	C768.280151,350.699890 766.922607,348.102356 761.712402,346.676178 
	C758.773560,345.871704 756.926086,347.449860 754.862427,348.744751 
	C747.141235,353.589600 739.433350,355.793457 731.276550,349.528198 
	C729.154663,347.898346 718.343933,352.836395 717.763062,355.506683 
	C717.605042,356.233215 717.876892,357.147766 718.195618,357.867950 
	C720.047241,362.051819 719.711975,366.402863 718.816956,370.627228 
	C709.921631,412.612244 666.054138,423.783691 635.938110,406.509460 
	C630.005615,403.106628 625.853455,398.677795 625.427551,391.250397 
	C625.192871,387.158173 623.450745,383.175507 622.825317,379.076782 
	C622.048828,373.988861 618.350891,371.462158 614.774536,368.340179 
	C608.120544,374.463501 602.992065,381.415863 597.507935,389.012573 
M499.440613,84.064545 
	C495.952362,80.177521 492.123383,76.313576 487.111206,74.972290 
	C473.068542,71.214371 459.131500,67.244560 444.095032,69.678482 
	C426.871002,72.466507 409.355164,73.978683 392.684540,79.199028 
	C374.444489,84.910820 358.614746,94.300758 351.509308,113.700455 
	C349.050903,120.412567 350.358673,122.484131 357.576721,122.800980 
	C387.139282,124.098671 416.055054,129.029648 444.378082,137.667313 
	C466.679321,144.468521 488.429993,152.791733 510.315948,160.755112 
	C516.067566,162.847900 517.638489,161.729401 517.795715,155.760056 
	C518.071716,145.280304 518.368225,134.798492 516.685059,124.379158 
	C514.321350,109.746811 510.671265,95.675034 499.440613,84.064545 
M355.836823,501.822845 
	C357.211609,504.009125 359.160950,504.766113 361.749237,504.712830 
	C367.237457,504.599792 372.757050,504.432220 378.214081,504.885468 
	C382.515900,505.242706 386.003967,504.097107 389.325745,501.567810 
	C403.009308,491.148712 415.443909,479.397278 426.878937,466.571564 
	C427.851349,465.480865 429.214142,464.357025 428.314819,462.677643 
	C427.410187,460.988373 425.798065,461.516632 424.309875,461.780457 
	C417.603210,462.969604 410.896515,464.109009 404.056854,464.302734 
	C379.921326,464.986206 356.759766,460.473877 334.416229,451.456482 
	C332.640381,450.739746 330.652802,449.326141 328.915955,451.310059 
	C327.410797,453.029297 328.767914,454.812347 329.456543,456.427460 
	C336.274170,472.417450 344.892181,487.371857 355.836823,501.822845 
M366.415497,149.945541 
	C374.860901,155.285568 383.345673,160.564453 391.744476,165.976807 
	C419.854279,184.091370 449.572540,186.200333 480.646240,175.019577 
	C482.498169,174.353241 484.868744,173.881165 485.025482,171.493530 
	C485.195251,168.906906 482.708740,168.604279 480.895905,167.890121 
	C446.987946,154.531982 412.161407,144.639877 375.861603,140.528275 
	C370.270233,139.894958 364.653381,138.738724 358.948822,139.386948 
	C357.145264,139.591888 355.701721,140.266525 355.335205,142.227203 
	C354.984650,144.102371 356.337677,144.914749 357.695953,145.612656 
	C360.363342,146.983215 363.061890,148.293076 366.415497,149.945541 
M356.105560,552.507141 
	C353.285492,552.326538 350.390656,552.484314 347.663727,551.882019 
	C344.024689,551.078125 342.507080,552.652588 342.456024,555.867615 
	C342.310699,565.015259 342.131317,574.173828 342.428558,583.312988 
	C342.619202,589.175232 347.330475,592.489563 354.894714,592.926514 
	C361.375122,593.300842 363.139618,591.872498 364.722107,585.047363 
	C366.860870,575.822998 369.028046,566.605286 371.167023,557.380981 
	C371.561951,555.677979 372.389771,553.921326 370.688629,552.058105 
	C366.244476,553.842285 361.629944,553.405518 356.105560,552.507141 
M345.202576,541.466370 
	C354.732697,540.395081 364.243408,539.489502 372.984192,544.808167 
	C375.305817,540.975525 379.508118,527.413330 379.360413,523.888184 
	C372.512817,523.093689 365.618378,522.271179 358.641754,522.245422 
	C348.873047,522.209290 342.016968,531.398438 345.202576,541.466370 
M35.979271,486.444427 
	C38.097809,488.637421 40.191021,490.872009 43.561672,491.598541 
	C43.491852,489.644653 41.343792,490.241058 41.351795,488.773102 
	C47.200970,487.487427 48.786797,485.240662 48.893940,478.108582 
	C43.078392,475.748413 40.357601,471.017090 48.671551,464.092041 
	C48.236637,463.127167 47.311642,462.065094 47.406475,461.103577 
	C47.716087,457.964478 46.928337,456.203857 43.478062,455.490875 
	C40.026562,454.777618 38.028862,456.230164 36.404125,458.766571 
	C30.737991,467.612183 29.652048,476.642303 35.979271,486.444427 
M749.981018,333.411530 
	C752.308899,330.394196 752.249695,325.900818 756.768738,324.018005 
	C758.216431,323.414856 759.148132,319.693085 756.030701,317.415344 
	C748.053711,311.586914 737.860901,315.948212 736.419861,326.230530 
	C735.817932,330.525085 735.607483,335.204468 740.294067,337.692596 
	C744.552612,339.953461 746.996338,336.576721 749.981018,333.411530 
M700.215759,333.940247 
	C699.943176,344.666626 705.101501,352.323792 713.067627,353.017822 
	C712.005676,345.476532 711.994873,345.467468 717.454773,338.944458 
	C718.865051,337.259521 719.128113,335.366760 718.609192,333.338989 
	C717.587158,329.345062 713.019897,326.174377 708.313293,326.099518 
	C703.527283,326.023376 700.914001,328.420013 700.215759,333.940247 
M551.945251,151.313293 
	C552.132446,149.242950 551.320984,147.447083 550.352112,145.713699 
	C549.656860,144.469879 549.312988,142.701813 547.457947,142.753159 
	C545.703308,142.801712 545.195068,144.424103 544.463867,145.696075 
	C543.719055,146.991653 543.023621,148.313873 543.083130,149.848236 
	C543.189331,152.589890 543.759399,155.505371 546.693909,156.196304 
	C549.483459,156.853088 551.179504,154.781235 551.945251,151.313293 
M532.916748,156.822891 
	C534.563354,156.180038 535.447144,154.768661 536.390625,153.405945 
	C537.288391,152.109207 537.898621,150.763657 536.849609,149.302399 
	C535.967346,148.073349 534.612732,147.992569 533.262329,148.182449 
	C531.494690,148.430984 530.739563,149.769165 530.534851,151.294861 
	C530.254456,153.385696 529.944824,155.610367 532.916748,156.822891 
M209.168716,427.348114 
	C209.307281,427.610443 209.445847,427.872803 209.584412,428.135132 
	C209.712265,428.034882 209.914246,427.959381 209.957108,427.830811 
	C210.894989,425.016907 212.365570,422.252808 211.210266,418.925110 
	C206.424927,420.884033 211.101730,424.570465 209.168716,427.348114 
z"/>
<path fill="#000000" opacity="1.000000" stroke="none" 
	d="
M450.422668,309.459656 
	C441.311798,294.822174 441.694794,277.553864 451.193848,264.536530 
	C459.934937,252.557831 474.314117,252.623764 482.143127,265.213745 
	C490.684967,278.950073 490.640564,293.406525 482.730988,307.405823 
	C474.833313,321.384064 460.903809,322.200348 450.422668,309.459656 
M475.796539,284.477478 
	C479.867798,284.463013 481.196686,281.733917 481.582703,278.350830 
	C481.899048,275.577911 480.704315,273.382843 477.946808,272.530518 
	C475.605347,271.806793 473.675140,272.745300 472.442078,274.862732 
	C470.562164,278.090912 471.412231,280.925415 473.870209,283.445190 
	C474.207489,283.790894 474.707977,283.977417 475.796539,284.477478 
z"/>
<path fill="#000000" opacity="1.000000" stroke="none" 
	d="
M321.486511,302.283875 
	C315.782043,289.130859 315.587585,276.388000 322.399841,264.005096 
	C326.129395,257.225830 331.662842,252.520111 339.923187,252.731918 
	C347.982422,252.938553 353.387085,257.658112 356.392151,264.621521 
	C362.552460,278.896423 363.146912,293.200684 353.418823,306.269073 
	C344.673920,318.016724 331.297577,317.318207 323.210541,305.186066 
	C322.657104,304.355804 322.179047,303.475342 321.486511,302.283875 
M348.095734,268.761963 
	C347.293488,269.340424 346.259460,269.758728 345.729614,270.525452 
	C343.590759,273.620697 343.407104,276.810028 346.360657,279.469177 
	C348.321106,281.234192 350.764526,281.360535 352.585175,279.238464 
	C355.043427,276.373199 355.172607,273.217438 352.741211,270.164642 
	C351.740692,268.908447 350.414734,268.317841 348.095734,268.761963 
z"/>
<path fill="#000000" opacity="1.000000" stroke="none" 
	d="
M382.726257,350.490723 
	C384.264160,345.323517 383.051331,342.399292 377.854950,340.746613 
	C372.694336,339.105286 368.676483,335.403564 365.591125,330.887848 
	C363.362915,327.626648 362.875885,324.075989 364.633270,320.474426 
	C367.219025,315.175232 373.081268,314.528320 376.844086,319.030640 
	C387.333984,331.582062 410.007690,331.997589 421.154388,319.774841 
	C423.834290,316.836243 426.895355,315.650787 430.497650,317.488708 
	C434.483948,319.522461 435.237610,323.218903 434.533264,327.284119 
	C434.055206,330.043182 432.199036,332.030487 430.249725,333.880066 
	C422.255188,341.465729 412.558350,345.057617 401.712402,345.218384 
	C397.506256,345.280762 395.792847,346.673615 395.242340,350.749390 
	C394.599030,355.512207 393.410309,360.207306 392.335022,364.903564 
	C391.652740,367.883270 390.030396,370.363220 386.652954,370.143402 
	C383.328644,369.927032 382.806091,366.928040 382.180511,364.311737 
	C381.100006,359.792816 382.940948,355.383240 382.726257,350.490723 
z"/>
<path fill="#000000" opacity="1.000000" stroke="none" 
	d="
M463.135742,236.353058 
	C458.804779,237.161926 454.895966,237.907654 451.015747,238.780396 
	C445.307739,240.064240 441.878510,238.702805 439.746185,234.178909 
	C437.664154,229.761780 438.876648,225.180710 443.438263,221.999603 
	C450.971893,216.745941 459.516663,214.808594 468.546326,215.833298 
	C477.085205,216.802338 485.128632,219.444824 491.600494,225.479507 
	C496.141083,229.713333 496.576660,235.128998 492.743134,239.721649 
	C489.955414,243.061386 486.579224,243.894821 482.579895,241.560455 
	C476.726654,238.143997 470.332214,236.535477 463.135742,236.353058 
z"/>
<path fill="#000000" opacity="1.000000" stroke="none" 
	d="
M355.301392,219.555603 
	C358.378235,221.437943 360.719360,223.501312 361.726227,226.719833 
	C362.923767,230.547775 362.233795,234.089203 359.422516,236.878525 
	C356.698425,239.581345 353.228180,240.134430 349.719299,238.521973 
	C339.766602,233.948349 329.898132,233.812271 319.796844,238.204712 
	C314.500977,240.507553 310.733185,239.277924 308.460022,235.366013 
	C305.955109,231.055344 306.836670,225.936188 311.135468,222.398560 
	C319.217163,215.747833 328.564728,212.728729 339.007080,214.014267 
	C344.630371,214.706543 350.056366,216.390366 355.301392,219.555603 
z"/>
<path fill="#000000" opacity="1.000000" stroke="none" 
	d="
M526.556396,617.423340 
	C524.247803,617.313232 522.301636,617.313232 519.854004,617.313232 
	C522.141052,614.287842 524.663513,613.525391 527.595398,615.313965 
	C531.290588,617.567993 531.919556,620.975769 530.450134,624.855286 
	C528.201294,630.792725 524.476624,633.197632 519.138794,631.957764 
	C520.305603,629.726685 522.758240,629.713989 524.429077,628.596863 
	C529.038452,625.515015 530.001099,621.475525 526.556396,617.423340 
z"/>
<path fill="#000000" opacity="1.000000" stroke="none" 
	d="
M68.555298,411.242279 
	C95.171600,404.436829 121.415489,397.771851 147.674652,391.167633 
	C156.388748,388.976044 160.890442,391.869293 160.343002,399.040710 
	C160.021271,403.255402 157.275696,405.237061 153.698914,406.141785 
	C127.124504,412.863617 100.536766,419.533875 73.923973,426.101837 
	C68.554710,427.426941 64.658714,425.488373 63.184509,421.364380 
	C61.764725,417.392670 63.532761,413.874542 68.555298,411.242279 
z"/>
<path fill="#000000" opacity="1.000000" stroke="none" 
	d="
M156.973114,444.232666 
	C134.171646,449.874054 111.773972,455.448120 89.376282,461.022125 
	C87.763565,461.423492 86.170914,461.966919 84.534149,462.198547 
	C79.896927,462.854767 75.818977,460.280212 74.874992,456.233734 
	C73.955696,452.293060 76.542801,447.984589 81.057518,446.807983 
	C93.427589,443.584167 105.856308,440.585541 118.260315,437.491760 
	C130.341675,434.478424 142.419830,431.452209 154.503433,428.447968 
	C155.787415,428.128754 157.087982,427.786804 158.399017,427.681366 
	C164.194336,427.215118 167.466171,429.266479 168.236115,433.741760 
	C168.977036,438.048309 166.298309,441.663391 161.233078,443.153503 
	C159.958740,443.528381 158.662872,443.830048 156.973114,444.232666 
z"/>
</svg>