<svg version="1.1" id="Layer_1" xmlns="http://www.w3.org/2000/svg" xmlns:xlink="http://www.w3.org/1999/xlink" x="0px" y="0px"
	 width="100%" viewBox="0 0 1024 1024" enable-background="new 0 0 1024 1024" xml:space="preserve">
<path fill="#000000" opacity="1.000000" stroke="none" 
	d="
M580.953369,706.218872 
	C556.073486,711.681763 531.323242,715.014893 506.260773,714.156006 
	C462.926788,712.670959 420.956299,704.995972 382.104218,684.495789 
	C329.755859,656.874207 298.743622,613.421082 286.662079,555.920959 
	C284.435699,545.325012 283.193726,534.579529 282.779480,523.782898 
	C282.607117,519.289978 280.755707,518.835510 277.135223,519.718018 
	C257.751221,524.442627 238.344070,529.072021 218.957596,533.786499 
	C197.307434,539.051514 175.675690,544.392151 154.025894,549.658752 
	C145.520569,551.727844 140.590866,548.632080 138.651901,540.071106 
	C136.596786,530.997498 134.570267,521.917114 132.591965,512.826477 
	C131.967865,509.958710 130.907043,508.445190 127.412048,508.118652 
	C111.360962,506.619141 100.003166,495.319122 97.722931,479.150391 
	C95.561584,463.824646 99.394600,450.725891 112.326859,441.286652 
	C115.264297,439.142639 113.820076,436.749420 113.352943,434.572357 
	C109.797546,418.002258 106.041145,401.475433 102.393021,384.925079 
	C100.812119,377.753021 103.387062,373.452240 110.631851,371.561646 
	C119.800209,369.169067 129.009003,366.920166 138.245361,364.805908 
	C141.219116,364.125244 142.284042,363.052124 141.937469,359.726471 
	C140.779846,348.618164 145.212906,342.366241 156.147598,339.735870 
	C167.773071,336.939362 179.474182,334.442535 191.184174,332.017242 
	C199.492004,330.296600 206.605621,334.440369 210.023895,343.215668 
	C211.440033,346.851135 212.848694,348.021912 216.917252,346.874725 
	C225.868149,344.350983 235.008972,342.503448 244.064667,340.348022 
	C254.931778,337.761444 259.008514,340.472900 261.314331,351.444489 
	C264.934784,368.671539 268.715607,385.864960 272.464905,403.064697 
	C272.740173,404.327423 273.308868,405.526215 273.961761,407.381714 
	C283.027222,401.818756 291.364227,395.845001 299.582581,389.711487 
	C301.240967,388.473816 301.280273,386.186340 301.795166,384.273071 
	C309.918884,354.087646 316.624603,323.534058 325.442902,293.527740 
	C334.984894,261.058899 346.025330,229.166351 361.248077,198.847794 
	C361.975250,197.399445 363.027985,196.017609 362.898743,193.866119 
	C357.954193,193.013702 352.914368,192.312958 347.952240,191.249619 
	C340.688629,189.693100 333.939484,186.889496 328.496765,181.642731 
	C319.583496,173.050323 319.311188,160.627792 327.667175,151.157562 
	C332.172241,146.051743 338.022339,142.829178 343.794952,139.511520 
	C359.093903,130.718887 375.975952,127.155594 393.183441,124.694000 
	C395.320648,124.388268 397.447998,123.731415 399.579071,123.734802 
	C402.402863,123.739296 403.731750,122.295097 404.773376,119.949539 
	C422.279510,80.527977 454.382172,61.018955 495.350067,53.592865 
	C502.238342,52.344261 509.140961,51.528996 516.158997,51.542938 
	C519.681335,51.549934 523.063782,50.943817 525.263794,47.483795 
	C526.008240,46.313023 527.481567,45.198895 528.818237,44.878487 
	C536.670105,42.996372 544.548218,42.335278 552.205444,45.798393 
	C554.428101,46.803619 556.222046,48.554157 556.801208,50.835518 
	C557.876038,55.069603 560.768921,56.307800 564.623047,57.257065 
	C588.822632,63.217400 611.538818,72.432121 630.505676,89.150345 
	C650.710144,106.959404 661.884155,129.766876 666.262268,156.039032 
	C668.176819,167.528214 669.433655,179.126999 667.479370,190.793076 
	C667.219177,192.346725 667.694336,193.743698 668.358582,195.121704 
	C684.235901,228.059509 692.975525,263.197784 700.352112,298.763702 
	C706.627563,329.020508 714.138794,358.991272 721.346252,389.032318 
	C721.823547,391.021729 722.954773,392.313263 724.581055,393.228699 
	C744.251709,404.301636 774.702393,399.863556 783.391724,371.992523 
	C785.142822,366.375916 782.344421,363.743591 776.306030,364.553284 
	C761.203247,366.578400 747.119751,362.877075 734.389709,355.050079 
	C724.002991,348.663788 721.476257,337.505890 720.899353,326.333710 
	C719.944946,307.853302 723.543396,290.126038 733.350342,274.219727 
	C740.314392,262.924591 749.811096,254.739365 764.221313,255.744110 
	C772.172913,256.298523 780.158020,257.758270 787.542236,260.712799 
	C798.978271,265.288544 802.712219,275.573303 804.151367,286.682281 
	C804.685608,290.806519 806.456177,292.178741 810.047974,292.434998 
	C825.795044,293.558472 839.915344,298.696747 851.834839,309.312592 
	C852.412964,309.827576 853.233337,310.070587 854.298401,310.626953 
	C856.144592,306.811340 857.689819,303.161255 859.615540,299.724304 
	C865.196655,289.763489 872.615173,281.897644 884.494202,279.927429 
	C892.102295,278.665588 899.329102,281.477722 906.589783,283.008514 
	C925.995605,287.099945 932.263550,293.410736 933.970764,313.495605 
	C935.963806,336.944336 931.312500,359.304932 917.969543,379.162933 
	C909.677368,391.503906 898.317505,397.150330 883.144531,393.460083 
	C877.634399,392.119965 872.217224,390.580170 866.905823,388.636566 
	C861.255798,386.569000 856.661560,383.105927 853.420410,377.997681 
	C851.846985,375.517761 850.342957,375.325439 847.719727,376.900818 
	C842.408997,380.090149 839.067871,383.893524 837.221619,390.331940 
	C824.948730,433.131165 797.490234,460.146637 753.210144,468.886841 
	C749.148254,469.688599 744.957825,469.914215 740.812683,470.190979 
	C738.301514,470.358673 737.132263,471.194916 737.575378,473.891815 
	C740.265259,490.263397 740.324524,506.855408 739.114990,523.224792 
	C733.363831,601.058044 691.032776,668.177673 610.481689,697.268066 
	C600.926697,700.718811 591.202759,703.621826 580.953369,706.218872 
M457.137360,174.407761 
	C445.490784,166.899933 433.440521,160.223724 420.248260,155.728088 
	C417.196045,154.687958 414.989838,154.998566 412.515778,157.050598 
	C407.112579,161.532150 402.082367,166.345871 397.546448,171.705780 
	C382.951141,188.952423 372.933014,208.864120 364.238617,229.473297 
	C347.822113,268.386749 336.907410,309.011078 327.198212,350.005646 
	C326.300385,353.796448 326.949005,356.614319 329.010406,359.744843 
	C348.836578,389.853119 374.423096,413.620056 406.423401,430.339478 
	C444.948059,450.467773 484.654053,455.813599 526.351685,440.646698 
	C552.751221,431.044220 576.735901,417.281677 599.339722,400.857819 
	C629.835510,378.699646 657.474426,353.051300 686.706177,329.349060 
	C688.891663,327.576965 689.571655,325.774048 688.962585,322.891113 
	C686.352234,310.536469 684.049316,298.117249 681.582031,285.731995 
	C676.005859,257.739685 668.264832,230.433868 656.002747,204.536560 
	C654.551086,201.470795 652.667053,199.481384 649.428223,198.288986 
	C632.088074,191.905014 614.620483,185.939728 596.850037,180.841873 
	C592.975525,179.730392 590.035706,180.242447 586.598633,182.320511 
	C561.453247,197.523560 534.336792,202.024704 505.489502,196.750961 
	C487.688293,193.496597 472.484833,184.676163 457.137360,174.407761 
M588.656067,688.036560 
	C594.967712,685.922058 601.360107,684.020142 607.578308,681.659607 
	C660.244812,661.666443 695.818604,625.168030 713.569031,571.548584 
	C714.561829,568.549377 715.414917,565.500122 716.229370,562.446533 
	C717.196411,558.820740 715.343323,557.860291 712.169006,558.479370 
	C711.040710,558.699463 709.972473,559.244934 708.888306,559.671082 
	C673.496155,573.581116 637.449280,585.084656 599.686340,590.789307 
	C568.389587,595.517151 536.987610,598.827820 505.335175,599.247192 
	C491.689697,599.427979 478.004761,600.085388 464.389130,598.378845 
	C461.450623,598.010559 459.411591,598.631836 458.130737,601.783691 
	C456.539795,605.698547 453.141632,607.445374 448.906982,607.359619 
	C439.417725,607.167419 429.915009,607.664429 420.445160,606.479858 
	C414.190826,605.697449 411.866760,603.715210 411.744934,597.321716 
	C411.675537,593.680176 410.134064,592.534973 406.825775,591.885681 
	C395.571472,589.677002 384.283997,587.525635 373.180939,584.681946 
	C351.522003,579.134644 330.513397,571.678711 310.408569,561.798767 
	C308.828308,561.022156 307.113892,559.477905 305.338501,560.876648 
	C303.395142,562.407776 304.418213,564.519714 304.996460,566.410339 
	C305.775208,568.956482 306.567078,571.499207 307.396088,574.029297 
	C321.433044,616.868896 347.794708,649.042786 388.177917,670.005310 
	C425.562927,689.411499 465.456512,697.169373 506.992828,698.566223 
	C534.488098,699.490845 561.416138,695.604004 588.656067,688.036560 
M659.944031,559.598572 
	C668.459167,557.772949 675.520020,553.388367 681.608459,547.290527 
	C682.680725,546.216492 684.036255,546.518066 685.362671,546.432312 
	C692.174805,545.991943 699.027954,548.136108 705.787659,544.225098 
	C711.273499,541.051208 714.213867,537.129028 713.241577,530.769287 
	C712.495300,525.887756 710.412903,521.585083 708.293274,517.236023 
	C705.366333,511.230682 701.116699,508.971344 694.887390,511.143280 
	C688.966858,513.207642 684.538696,511.412170 680.601074,507.138000 
	C678.057434,504.376862 676.046814,501.096161 672.928833,499.060913 
	C671.689514,499.241821 672.652954,501.104156 670.943542,500.981232 
	C671.869141,496.199799 669.348633,493.237244 665.916138,490.425964 
	C658.589417,484.425201 654.300354,476.431580 651.612854,467.451874 
	C643.675598,440.930603 647.976990,415.570099 659.952759,391.437897 
	C663.864868,383.554535 665.057434,374.210419 671.846802,367.757050 
	C672.174194,367.445831 671.959900,366.564758 672.014099,365.684998 
	C669.348938,365.534668 667.091125,366.116608 665.282410,367.527252 
	C659.914124,371.714050 654.575806,375.953186 649.424805,380.402344 
	C616.873779,408.518158 582.334778,433.578369 542.425964,450.447235 
	C540.267639,451.359497 538.128296,452.325653 536.709961,454.319855 
	C521.632629,475.519257 503.438751,493.748535 483.388336,510.197327 
	C481.526276,511.724884 480.840973,512.984863 482.664215,515.099243 
	C494.891022,529.278137 494.226074,545.263062 488.595032,561.639832 
	C485.326660,571.145203 478.973450,577.532471 468.242523,578.179260 
	C466.803833,578.265930 465.559967,578.579224 465.356384,580.287109 
	C465.135345,582.141907 466.205353,583.154907 467.843719,583.430359 
	C469.474640,583.704529 471.157837,583.734253 472.819305,583.750427 
	C495.971222,583.975952 519.080078,583.640686 542.216370,582.005676 
	C578.025757,579.475037 613.283752,574.118591 647.875671,564.526184 
	C651.829712,563.429810 656.151611,563.071533 659.944031,559.598572 
M413.749695,535.567932 
	C415.148224,528.271301 417.193329,521.176514 423.077148,516.162292 
	C426.215851,513.487488 426.179535,511.583221 423.724457,508.406067 
	C408.714508,488.981689 398.071960,467.201752 390.130127,444.089539 
	C388.618378,439.690063 386.324005,436.541901 382.470825,434.142975 
	C374.542816,429.207123 367.211029,423.474030 360.127197,417.375244 
	C353.557404,411.719055 347.247650,405.809265 341.098846,399.711060 
	C338.333832,396.968719 334.781799,395.081482 331.255066,396.959137 
	C327.428101,398.996674 326.278687,403.002533 327.364868,407.376404 
	C327.485229,407.861023 327.605255,408.347961 327.683380,408.840515 
	C328.672852,415.083038 327.902313,417.193115 321.931854,419.132172 
	C316.597321,420.864685 313.595306,424.449158 312.888885,429.361786 
	C311.950531,435.886810 310.132782,441.578613 304.938354,445.951843 
	C304.041138,446.707275 303.620422,448.274109 303.392090,449.540527 
	C301.089111,462.312347 299.168671,475.133667 298.221283,488.094818 
	C297.390076,499.466003 299.583649,510.505554 300.892059,521.710632 
	C302.505493,535.527893 308.261841,544.763306 321.412048,550.108948 
	C347.045563,560.529175 372.916016,569.987610 400.206421,575.140991 
	C409.438873,576.884399 411.618378,575.342957 411.635986,565.771729 
	C411.654053,555.939026 412.221649,546.156982 413.749695,535.567932 
M122.475075,402.184753 
	C124.653679,411.733704 127.050400,421.240784 128.896652,430.853577 
	C129.574341,434.381989 131.084961,435.634064 134.412277,435.616272 
	C139.518860,435.588959 143.284348,438.232941 146.151413,442.175690 
	C149.507660,446.791168 150.801758,452.031952 150.365738,457.738678 
	C150.204285,459.851807 149.984589,461.915741 151.994217,463.668915 
	C162.232666,472.600677 163.514084,492.595764 149.821014,501.446442 
	C148.201035,502.493561 146.920624,503.848816 147.394791,505.967957 
	C149.416229,515.002502 150.964142,524.155823 153.744080,533.137390 
	C154.718811,533.034912 155.376282,533.040100 155.996246,532.890137 
	C195.238373,523.396790 234.475906,513.884521 273.719421,504.397125 
	C277.225433,503.549530 277.920990,501.740265 277.119507,498.179077 
	C271.065887,471.282440 265.276947,444.326355 259.332855,417.404877 
	C255.179169,398.592407 250.868927,379.814453 246.735626,360.997559 
	C246.049973,357.876099 245.065002,356.274414 241.405380,357.272156 
	C234.352264,359.195129 227.191513,360.721405 220.084595,362.450012 
	C217.784042,363.009613 216.457047,364.202057 216.260147,366.908417 
	C215.481766,377.607147 211.318939,382.624756 201.146820,385.093262 
	C190.812408,387.601135 180.444794,389.985901 170.045944,392.210693 
	C158.535873,394.673248 153.651886,392.376434 148.127335,381.948914 
	C147.055344,379.925568 146.121216,379.357544 143.900620,379.935120 
	C136.984558,381.734039 130.027008,383.384583 123.050377,384.934387 
	C119.979202,385.616608 118.834732,386.955933 119.798004,390.191437 
	C120.885063,393.842743 121.529327,397.625916 122.475075,402.184753 
M671.922791,473.562988 
	C684.128601,488.335907 699.759216,495.791168 718.976135,495.740448 
	C722.561157,495.730988 724.242126,494.305817 724.053772,490.679932 
	C723.846313,486.687225 723.904297,482.673767 723.538269,478.697693 
	C722.662354,469.182373 722.589111,469.189728 713.118408,466.946777 
	C712.147278,466.716736 711.176331,466.484772 710.210510,466.233734 
	C699.994568,463.578552 690.193726,459.873566 681.393555,453.970306 
	C676.674622,450.804779 675.744690,446.264862 678.460083,442.365570 
	C680.924011,438.827545 684.736816,438.345886 689.390259,441.408661 
	C694.030884,444.463043 699.025269,446.741882 704.219666,448.508453 
	C739.450012,460.489929 771.227661,455.198120 798.268494,428.732758 
	C811.694580,415.592438 820.015137,399.383484 823.766785,380.964813 
	C824.973083,375.042572 827.311096,370.552521 833.234253,367.958618 
	C838.656677,365.583984 842.757263,361.282990 845.974792,356.290558 
	C847.633972,353.716125 849.317200,350.557037 846.453125,348.198639 
	C843.806702,346.019409 840.609375,344.980896 836.976318,347.780487 
	C829.271301,353.718048 821.037537,355.960846 812.207886,349.583313 
	C809.952942,347.954590 799.291748,352.802094 798.748169,355.509979 
	C798.601868,356.238922 798.891418,357.150452 799.224365,357.864716 
	C801.013794,361.703278 800.776855,365.811005 800.017944,369.656982 
	C791.051208,415.097687 742.340820,424.394287 713.614990,404.272156 
	C709.572632,401.440552 707.387024,397.677063 706.600708,392.721985 
	C705.691040,386.990387 704.319824,381.306030 702.755005,375.711334 
	C701.022522,369.517456 695.927673,368.231445 691.498718,372.848633 
	C671.180725,394.030365 661.227112,419.162567 663.465149,448.637482 
	C664.122498,457.295044 666.150269,465.751373 671.922791,473.562988 
M594.440857,109.042068 
	C588.782043,92.135254 580.456787,77.538513 561.452271,72.987038 
	C548.740601,69.942657 536.150024,66.515060 522.644287,68.646645 
	C515.093079,69.838448 507.668121,71.719017 500.054291,72.551025 
	C479.286102,74.820480 460.326599,81.485626 444.333527,95.492767 
	C437.903046,101.124779 433.832428,107.906448 432.792969,116.379105 
	C432.314270,120.281364 433.718048,122.816872 438.248901,122.819466 
	C441.064362,122.821083 443.874268,123.482697 446.695709,123.577126 
	C477.236389,124.599228 506.576202,131.675659 535.536255,140.868423 
	C554.263733,146.813095 572.548035,153.953079 590.962646,160.749695 
	C596.333679,162.732056 598.506592,161.526718 598.774902,156.344208 
	C599.587585,140.651733 598.947205,125.072662 594.440857,109.042068 
M468.886078,502.556671 
	C482.983337,492.113525 495.718567,480.188629 507.383179,467.106171 
	C508.438080,465.923096 510.140594,464.803833 509.110291,462.854553 
	C508.083618,460.912048 506.325256,461.649261 504.679108,461.920837 
	C498.122498,463.002411 491.579956,464.129669 484.900452,464.311768 
	C460.925293,464.965485 437.924286,460.465515 415.729156,451.525513 
	C413.945282,450.806946 412.039429,449.457397 410.242126,451.467224 
	C408.675812,453.218658 409.866699,454.993744 410.553070,456.595612 
	C417.400391,472.576111 426.025848,487.530396 436.458221,501.453125 
	C438.239166,503.829895 440.269592,504.771545 443.229034,504.712555 
	C449.216858,504.593170 455.213776,504.740051 461.202209,504.927887 
	C463.808563,505.009644 466.156616,504.559662 468.886078,502.556671 
M451.282623,152.123184 
	C457.996033,156.451691 464.757172,160.708191 471.414581,165.121216 
	C500.092529,184.131149 530.509521,186.495605 562.405029,174.688751 
	C564.162292,174.038254 566.705872,173.717331 566.530029,171.076904 
	C566.379272,168.812714 564.055542,168.680435 562.416870,168.038345 
	C528.371704,154.698029 493.447144,144.696854 457.017975,140.500839 
	C451.907501,139.912201 446.751495,139.644730 441.608185,139.454300 
	C439.734314,139.384918 437.923645,140.204712 437.469879,142.367599 
	C437.042358,144.405334 438.561920,145.407898 440.029877,146.206696 
	C443.537415,148.115356 447.106903,149.910202 451.282623,152.123184 
M431.681549,592.181946 
	C442.325378,594.506287 443.909668,593.450928 446.132751,583.233826 
	C447.968323,574.797791 450.023773,566.409424 452.014709,558.007690 
	C452.467804,556.095642 453.276489,554.218140 452.011078,552.066528 
	C444.289062,554.798462 436.538147,552.408325 428.845154,551.829895 
	C424.573029,551.508728 423.397675,552.750854 423.383392,556.440979 
	C423.352539,564.422729 423.352295,572.404724 423.288666,580.386230 
	C423.244171,585.971069 425.378998,590.043152 431.681549,592.181946 
M127.001183,466.529938 
	C128.962921,465.008179 131.131882,463.686646 132.839523,461.919373 
	C135.643906,459.017029 135.799011,453.545135 133.028122,452.160309 
	C129.683853,450.488922 126.240364,450.401520 124.275383,454.613037 
	C123.740646,455.759125 122.828400,456.570190 121.557640,456.441711 
	C118.810875,456.164124 117.808998,458.204956 116.638992,459.971313 
	C114.198997,463.654968 113.036484,467.859802 112.525497,472.146545 
	C111.205826,483.217560 117.630577,489.393494 128.256836,487.567505 
	C131.368790,487.032806 133.643112,488.082367 134.475769,491.305786 
	C137.723114,488.851929 140.923264,486.565826 143.947937,484.067291 
	C144.850159,483.322021 144.603836,481.951904 144.321579,480.760040 
	C143.163467,475.869812 139.865952,474.523224 133.246887,476.536194 
	C130.349777,477.417297 127.595901,477.864655 125.573563,475.110291 
	C123.480965,472.260376 124.138214,469.492706 127.001183,466.529938 
M432.206085,523.377991 
	C426.052673,528.046692 425.026093,534.658936 424.610199,541.866455 
	C436.257080,539.597351 448.673767,540.795349 454.248444,544.986267 
	C457.207062,539.138489 458.203125,532.687561 460.489441,526.703735 
	C461.141602,524.996948 459.888184,523.680542 458.175598,523.603394 
	C449.769440,523.224792 441.396637,520.928284 432.206085,523.377991 
M630.849121,139.746613 
	C628.791931,137.246078 626.520081,136.827560 624.038757,139.112473 
	C622.435059,140.589264 620.724426,140.933121 618.554260,140.409515 
	C613.695801,139.237305 610.728577,141.325974 610.161133,146.392944 
	C609.719116,150.339233 609.594177,154.327621 609.480957,158.301636 
	C609.414062,160.648453 609.614136,163.013672 612.145874,164.269867 
	C614.732849,165.553482 616.744385,164.184174 618.399292,162.564713 
	C620.441101,160.566620 622.245300,160.228394 625.024414,161.309067 
	C629.175537,162.923279 632.388367,160.917801 633.896057,156.762100 
	C636.070862,150.767349 635.019348,145.355331 630.849121,139.746613 
M836.753967,317.427948 
	C828.705811,312.053680 821.247620,314.894318 817.939880,324.593628 
	C816.071960,330.070953 817.705383,336.306793 821.436279,337.941650 
	C825.001343,339.503845 829.808716,336.369415 832.396301,330.655273 
	C833.221313,328.833496 833.641479,326.588470 835.495178,325.681366 
	C839.519531,323.712067 838.514954,320.905792 836.753967,317.427948 
M781.279663,333.124817 
	C780.670227,344.159790 786.391296,353.094299 794.005493,351.768768 
	C790.850464,346.147003 793.608948,342.487793 798.026245,339.165253 
	C800.463013,337.332367 800.421997,334.402771 799.007690,331.910736 
	C796.797119,328.015411 793.293457,326.014282 788.728638,326.093781 
	C784.597229,326.165741 782.432556,328.574371 781.279663,333.124817 
M290.867401,422.756012 
	C288.805695,422.271576 286.733673,421.110291 284.619476,422.256378 
	C282.135345,423.602966 279.766113,434.076782 281.125793,437.159119 
	C290.677948,434.737793 292.237701,432.611877 290.867401,422.756012 
z"/>
<path fill="#000000" opacity="1.000000" stroke="none" 
	d="
M414.903748,853.312256 
	C394.062927,853.547791 376.944397,846.642761 365.864410,829.012878 
	C346.126221,797.606506 363.434875,754.904480 401.966583,748.688538 
	C426.568176,744.719849 447.668579,751.737854 460.505432,773.619568 
	C478.451935,804.211182 463.234711,845.063843 423.790955,852.332336 
	C421.022522,852.842468 418.187775,852.992798 414.903748,853.312256 
M391.230469,784.752014 
	C386.325165,792.695068 384.953857,801.108704 387.918549,810.072693 
	C391.880310,822.051575 403.713013,829.252930 416.597351,827.559082 
	C428.611542,825.979736 438.010193,815.789795 438.794922,803.492737 
	C439.673615,789.722961 433.679810,779.351501 422.347839,775.033325 
	C411.292938,770.820740 398.846893,774.519531 391.230469,784.752014 
z"/>
<path fill="#000000" opacity="1.000000" stroke="none" 
	d="
M429.555603,952.452637 
	C407.257294,981.326782 362.261230,982.375305 340.644806,954.758728 
	C317.310242,924.947144 332.047058,876.833801 374.516754,870.613037 
	C400.896973,866.749084 424.154633,878.111145 433.735413,900.186951 
	C441.462219,917.990784 440.083984,935.521362 429.555603,952.452637 
M362.279846,937.169006 
	C371.078217,949.780823 386.737274,952.953796 399.130249,944.384094 
	C407.796356,938.391418 410.354034,929.631775 409.791046,919.488159 
	C408.890411,903.260803 393.558868,891.890015 377.880798,896.009827 
	C360.740631,900.513855 353.145416,919.759094 362.279846,937.169006 
z"/>
<path fill="#000000" opacity="1.000000" stroke="none" 
	d="
M757.939636,871.707153 
	C797.080444,883.644226 804.434326,927.898682 785.841797,953.586182 
	C771.888062,972.864624 744.107056,980.126465 720.238708,970.819946 
	C697.284302,961.869812 685.019897,940.790588 687.737549,914.959595 
	C690.051514,892.965942 708.232300,874.314819 730.869568,870.555054 
	C739.858887,869.062134 748.729004,869.227051 757.939636,871.707153 
M715.401978,926.017822 
	C718.978577,941.847412 728.226929,949.440369 743.360474,948.738098 
	C753.451050,948.269836 760.734985,943.182739 764.830017,934.099182 
	C769.527527,923.679321 768.453003,913.490601 761.258911,904.552063 
	C754.734985,896.446350 745.835876,893.638733 735.741150,895.942932 
	C722.351196,898.999512 715.296509,909.401611 715.401978,926.017822 
z"/>
<path fill="#000000" opacity="1.000000" stroke="none" 
	d="
M683.915894,846.430664 
	C683.821777,816.182068 683.773560,786.378418 683.812256,756.574890 
	C683.819031,751.373413 685.573547,749.739746 690.731201,749.659851 
	C695.392273,749.587585 700.056152,749.589722 704.717346,749.657959 
	C710.312622,749.739929 711.312805,750.761719 711.345276,756.543762 
	C711.396667,765.701294 711.467346,774.861450 711.298157,784.016174 
	C711.237854,787.274719 712.462952,788.530762 715.618958,788.510559 
	C723.110779,788.462524 730.603638,788.510803 738.095581,788.578796 
	C741.582947,788.610413 742.709900,786.767212 742.684448,783.535461 
	C742.615051,774.711243 742.631775,765.885620 742.699280,757.061218 
	C742.745605,751.007996 744.078247,749.693298 750.010254,749.640198 
	C754.505554,749.599976 759.002258,749.592041 763.497009,749.659912 
	C769.060852,749.743896 770.286987,750.915527 770.315552,756.455688 
	C770.378296,768.610352 770.342285,780.765564 770.343201,792.920532 
	C770.344421,809.904236 770.365540,826.888000 770.329956,843.871643 
	C770.316528,850.284119 769.197205,851.348511 762.692322,851.397705 
	C758.363464,851.430481 754.033142,851.441528 749.705139,851.365479 
	C744.569092,851.275208 742.804749,849.638123 742.725708,844.448914 
	C742.593750,835.792542 742.526123,827.129150 742.738281,818.476196 
	C742.835022,814.528442 741.391724,813.166809 737.510620,813.286438 
	C730.523865,813.502075 723.521057,813.509460 716.534546,813.293152 
	C712.655518,813.173035 711.192505,814.513489 711.293396,818.469238 
	C711.514221,827.122009 711.419800,835.784363 711.362061,844.442200 
	C711.323853,850.165344 710.237244,851.277222 704.708984,851.372864 
	C700.048218,851.453552 695.382141,851.290588 690.723694,851.421936 
	C687.289673,851.518738 684.887146,850.390442 683.915894,846.430664 
z"/>
<path fill="#000000" opacity="1.000000" stroke="none" 
	d="
M558.747192,804.403320 
	C563.259338,817.693970 567.647339,830.613403 571.953491,843.560059 
	C573.910339,849.443237 572.616821,851.286865 566.520020,851.373047 
	C561.355164,851.446106 556.184082,851.219238 551.022949,851.369812 
	C546.302185,851.507446 543.729309,849.424622 542.297668,844.923279 
	C538.905640,834.258362 538.769409,834.303101 527.480591,834.314270 
	C521.480957,834.320190 515.479858,834.401733 509.482391,834.288269 
	C506.529144,834.232483 504.881317,835.364990 504.071198,838.267090 
	C499.678406,854.003174 499.025146,851.124207 485.296448,851.394348 
	C482.964294,851.440308 480.629700,851.418396 478.297180,851.375183 
	C472.213226,851.262451 470.503754,848.998230 472.414856,843.179382 
	C475.737671,833.061951 479.255341,823.008789 482.627808,812.907471 
	C488.740204,794.599243 494.792694,776.270935 500.898102,757.960388 
	C503.156799,751.186462 505.297974,749.693726 512.657288,749.658630 
	C518.990112,749.628418 525.323303,749.621704 531.656067,749.651184 
	C538.767883,749.684265 541.104797,751.397400 543.339355,758.121887 
	C548.425598,773.428040 553.506531,788.735962 558.747192,804.403320 
M531.580322,807.695557 
	C528.792053,799.178162 526.647217,790.420654 522.898438,782.261658 
	C522.406860,782.266602 521.915344,782.271545 521.423828,782.276489 
	C518.440552,791.473206 515.457275,800.669861 512.299377,810.404785 
	C518.549316,811.240295 524.002319,810.888916 529.443298,810.728027 
	C530.796631,810.688049 531.554565,809.876526 531.580322,807.695557 
z"/>
<path fill="#000000" opacity="1.000000" stroke="none" 
	d="
M542.639221,968.454590 
	C541.492126,972.066284 538.925049,973.113831 535.927795,973.187012 
	C530.601501,973.317017 525.267212,973.350891 519.941711,973.212952 
	C514.740356,973.078247 512.835449,970.573975 514.286743,965.258728 
	C515.992798,959.010315 518.135315,952.877930 520.184570,946.727173 
	C527.435730,924.963623 534.741882,903.218384 541.998108,881.456543 
	C545.263611,871.663208 546.513672,870.738403 557.070740,870.740479 
	C562.899841,870.741577 568.729248,870.724365 574.558044,870.770203 
	C579.593994,870.809814 582.814331,872.931702 584.507385,878.049744 
	C593.952271,906.601379 603.645752,935.070740 613.209961,963.583069 
	C615.715271,971.051758 614.062744,973.235291 606.090698,973.272461 
	C601.927124,973.291870 597.759583,973.153015 593.600647,973.290894 
	C588.723389,973.452515 585.951782,971.266968 584.433411,966.614319 
	C580.766235,955.377014 580.648071,955.416077 568.658325,955.416626 
	C562.995728,955.416870 557.325623,955.591248 551.673279,955.350281 
	C548.079102,955.197083 546.102661,956.397095 545.337280,960.004578 
	C544.753784,962.755005 543.661316,965.397461 542.639221,968.454590 
M559.053223,915.349792 
	C557.430664,920.872559 554.937805,926.152588 554.095459,932.104248 
	C560.730774,932.104248 567.034119,932.104248 574.191895,932.104248 
	C570.790894,921.616028 567.636902,911.889526 564.482910,902.162964 
	C564.119385,902.221252 563.755859,902.279480 563.392334,902.337708 
	C562.022461,906.422485 560.652588,910.507263 559.053223,915.349792 
z"/>
<path fill="#000000" opacity="1.000000" stroke="none" 
	d="
M649.572998,785.012939 
	C647.627747,783.413635 646.015625,781.977051 644.497681,780.447021 
	C635.691772,771.571350 622.799927,771.090820 613.464661,779.316223 
	C603.642578,787.970520 601.284546,806.000671 608.546387,816.922119 
	C616.954346,829.567261 634.689880,831.254639 645.239075,820.065247 
	C648.715637,816.377563 652.087952,815.954651 656.365051,817.671509 
	C659.760986,819.034729 663.197266,820.298218 666.623962,821.583679 
	C672.576294,823.816467 673.595764,826.142822 670.406860,831.794922 
	C664.994507,841.387939 656.614441,847.367310 646.244019,850.711487 
	C622.989746,858.210205 597.239380,850.288391 584.498535,831.152466 
	C564.675842,801.380005 576.731812,754.147644 620.446716,748.514282 
	C635.824951,746.532532 649.875000,749.631836 662.035156,759.612244 
	C666.631042,763.384399 670.011780,768.040039 671.529175,773.934692 
	C672.218872,776.613892 671.614563,778.787170 669.020142,779.642517 
	C662.739136,781.713318 656.684814,784.629456 649.572998,785.012939 
z"/>
<path fill="#000000" opacity="1.000000" stroke="none" 
	d="
M341.203186,761.814941 
	C344.453278,765.264221 346.847595,768.817200 348.165588,773.045166 
	C349.304749,776.699463 348.401611,779.224365 344.469299,780.311584 
	C342.227203,780.931458 339.941864,781.510986 337.824677,782.445557 
	C330.857788,785.520691 325.606995,785.109070 319.424683,779.021912 
	C307.773254,767.550110 287.762604,774.138184 282.473572,790.253540 
	C280.353912,796.712097 280.091156,803.325500 281.850189,809.874634 
	C286.622650,827.643127 308.704071,833.581177 321.544006,820.419006 
	C325.108612,816.765015 328.540192,815.842346 333.103180,817.764771 
	C336.625275,819.248657 340.273346,820.430481 343.828278,821.840210 
	C348.603210,823.733826 349.513611,826.084961 347.358856,830.825317 
	C345.308807,835.335205 341.858643,838.783630 338.215088,841.922119 
	C323.028320,855.003784 297.909424,857.079102 278.526581,847.031921 
	C260.708954,837.795959 249.956772,817.150452 251.731827,795.582642 
	C253.445297,774.763123 268.103424,755.989563 287.913147,750.426025 
	C307.342072,744.969421 325.468872,747.390015 341.203186,761.814941 
z"/>
<path fill="#000000" opacity="1.000000" stroke="none" 
	d="
M309.950775,878.956665 
	C322.290710,890.004639 326.250793,905.332275 320.753082,919.922729 
	C315.421448,934.072449 302.024323,943.126648 286.153168,943.285095 
	C282.821808,943.318359 279.479156,943.453552 276.160797,943.242371 
	C272.356140,943.000122 271.192566,944.675964 271.378357,948.286682 
	C271.660492,953.770142 271.531677,959.273438 271.686462,964.765259 
	C271.869049,971.241455 270.126434,973.173706 263.640137,973.269470 
	C259.476410,973.330872 255.310822,973.305237 251.146393,973.274536 
	C247.016418,973.244080 244.605850,971.566589 244.612732,967.001526 
	C244.657639,937.182800 244.653168,907.363770 244.561050,877.545166 
	C244.549133,873.689880 246.200897,871.019165 249.848206,871.033569 
	C265.612335,871.095703 281.489288,869.052124 297.089386,872.829712 
	C301.620514,873.926880 305.922485,875.811096 309.950775,878.956665 
M293.190765,913.602661 
	C298.457275,905.330933 293.123199,895.925537 284.520203,894.644592 
	C281.257477,894.158752 277.879150,894.437683 274.553162,894.393372 
	C272.731842,894.369080 271.853027,895.216797 271.826263,897.127380 
	C271.742401,903.112000 271.555908,909.095215 271.426392,915.079346 
	C271.392120,916.661987 271.620911,918.409302 273.554718,918.444885 
	C280.261505,918.568237 287.372101,920.232422 293.190765,913.602661 
z"/>
<path fill="#000000" opacity="1.000000" stroke="none" 
	d="
M466.669373,912.005066 
	C466.662720,907.678284 466.543793,903.846008 466.683594,900.023193 
	C466.802429,896.773743 465.224030,895.473938 462.202271,895.454651 
	C457.209198,895.422729 452.215332,895.443787 447.223297,895.355286 
	C441.581573,895.255371 439.921600,893.564209 439.771149,887.816833 
	C439.697113,884.989197 439.730072,882.157837 439.759705,879.328613 
	C439.828979,872.711853 441.697693,870.784485 448.468414,870.756287 
	C463.780945,870.692505 479.093964,870.731934 494.406769,870.730530 
	C500.731628,870.729980 507.057373,870.666931 513.381104,870.751831 
	C519.841980,870.838501 521.199646,872.116943 521.740662,878.585876 
	C522.059631,882.400635 522.032166,886.221313 521.556030,890.044556 
	C521.107788,893.644165 519.176514,895.360168 515.598755,895.365540 
	C510.106262,895.373657 504.609894,895.534485 499.122650,895.374329 
	C495.456146,895.267273 494.250671,896.664917 494.276642,900.360229 
	C494.427307,921.830505 494.367767,943.302185 494.361816,964.773438 
	C494.359894,971.823364 492.962982,973.219360 485.897461,973.279663 
	C482.069580,973.312378 478.240204,973.332642 474.413147,973.265503 
	C468.509796,973.162048 466.706909,971.379517 466.692047,965.432800 
	C466.647980,947.789856 466.671936,930.146729 466.669373,912.005066 
z"/>
<path fill="#000000" opacity="1.000000" stroke="none" 
	d="
M656.322266,972.811523 
	C650.746643,973.088867 645.589233,973.264954 640.431702,973.267822 
	C633.748657,973.271545 631.885864,971.425049 631.859131,964.619507 
	C631.797485,948.958252 631.832275,933.296631 631.830261,917.635132 
	C631.829529,912.136963 631.630249,906.628540 631.904663,901.143921 
	C632.115906,896.921204 630.880371,895.003113 626.313599,895.334656 
	C621.674561,895.671448 616.987366,895.280151 612.324768,895.376404 
	C607.648804,895.472900 605.635376,893.163879 605.678528,888.663208 
	C605.713684,884.998169 605.693298,881.332458 605.674744,877.667114 
	C605.651917,873.166809 607.928223,870.764343 612.371704,870.754333 
	C634.697327,870.703857 657.023254,870.700073 679.348816,870.766052 
	C683.909546,870.779541 686.480713,873.027893 686.339233,877.903442 
	C686.228149,881.732361 686.319153,885.566833 686.309570,889.398865 
	C686.299866,893.293823 684.226135,895.260864 680.443787,895.335693 
	C675.280823,895.437866 670.100525,895.622375 664.954224,895.319946 
	C660.464661,895.056213 659.278564,896.871826 659.310425,901.143188 
	C659.470764,922.634766 659.369934,944.128235 659.352295,965.621094 
	C659.350098,968.272827 659.699097,971.074280 656.322266,972.811523 
z"/>
<path fill="#000000" opacity="1.000000" stroke="none" 
	d="
M549.606995,318.281403 
	C541.147339,319.100250 535.471802,315.324921 531.120300,308.996582 
	C522.517883,296.486267 522.884338,277.399475 531.962341,264.805084 
	C540.963013,252.317963 555.820618,252.915146 563.870117,266.087524 
	C571.754517,278.989777 570.862732,298.316284 561.830322,310.457550 
	C558.837891,314.479919 554.987915,317.192108 549.606995,318.281403 
M562.258057,280.647919 
	C562.808411,278.857666 562.808777,277.088806 562.022888,275.361115 
	C560.502075,272.017822 556.949829,271.250031 554.374939,273.701691 
	C551.715149,276.234222 551.679321,280.375793 554.411133,282.927246 
	C557.626160,285.930023 560.002136,284.534882 562.258057,280.647919 
z"/>
<path fill="#000000" opacity="1.000000" stroke="none" 
	d="
M441.626770,282.957092 
	C441.619965,293.432343 438.949493,302.425537 431.432465,309.564240 
	C424.239624,316.395081 414.304932,316.229218 407.331940,309.102020 
	C395.470001,296.977661 395.301208,271.273468 407.003021,259.017792 
	C416.048615,249.544098 428.659119,250.696808 435.827087,261.663330 
	C439.969788,268.001343 441.444550,275.090393 441.626770,282.957092 
M434.740936,277.303406 
	C436.187225,273.984680 435.557159,271.153107 432.530853,269.117310 
	C430.602448,267.820099 428.634918,268.395599 427.161713,269.978088 
	C424.557129,272.775940 424.312531,276.197662 426.689087,278.945099 
	C429.274200,281.933624 432.230133,281.177490 434.740936,277.303406 
z"/>
<path fill="#000000" opacity="1.000000" stroke="none" 
	d="
M445.327850,328.093872 
	C444.244873,324.498566 444.486725,321.427551 446.692657,318.780365 
	C449.856842,314.983276 454.477966,315.131195 457.843567,319.042816 
	C468.632538,331.582153 490.911713,331.986847 502.079712,319.802124 
	C505.051941,316.559326 508.422516,315.521698 512.290771,317.861053 
	C515.779724,319.971008 516.953247,325.520294 514.700134,329.451782 
	C512.513977,333.266418 509.210632,336.117767 505.514038,338.420898 
	C498.456482,342.817963 490.730835,345.326050 482.406494,345.237396 
	C478.421478,345.194946 476.778046,346.612579 476.229370,350.487823 
	C475.509949,355.569214 474.351593,360.598907 473.165375,365.599426 
	C472.560242,368.150177 471.078491,370.308472 468.067413,370.201630 
	C465.010071,370.093170 464.017761,367.758545 463.405701,365.181702 
	C462.060852,359.519653 463.893188,353.958313 463.995392,348.337708 
	C464.062256,344.657135 463.165070,342.574280 459.561920,341.143982 
	C453.406250,338.700439 448.244995,334.838745 445.327850,328.093872 
z"/>
<path fill="#000000" opacity="1.000000" stroke="none" 
	d="
M534.019470,238.267929 
	C529.446777,239.629700 525.367493,240.169189 522.099731,236.444519 
	C518.096924,231.882034 519.073303,225.644745 524.733887,221.851379 
	C534.582275,215.251572 545.385681,214.159592 556.703247,217.183289 
	C562.549561,218.745239 568.032593,221.101440 572.473999,225.338287 
	C575.853760,228.562317 577.459473,232.314926 575.329346,236.999557 
	C572.804016,242.553101 568.758179,244.057068 563.296448,241.305008 
	C554.064331,236.653152 544.549377,234.689056 534.019470,238.267929 
z"/>
<path fill="#000000" opacity="1.000000" stroke="none" 
	d="
M442.643921,233.200592 
	C439.490051,239.049347 435.677185,240.742722 430.231354,238.327026 
	C420.552094,234.033432 411.048676,233.857101 401.289764,238.080933 
	C395.654144,240.520126 391.858398,239.403915 389.479034,235.389572 
	C386.918579,231.069733 387.903503,226.282852 392.139465,222.460144 
	C404.517212,211.289963 426.538940,210.882278 439.170654,221.648849 
	C442.616882,224.586197 443.960876,228.327286 442.643921,233.200592 
z"/>
<path fill="#000000" opacity="1.000000" stroke="none" 
	d="
M158.135773,408.885376 
	C182.048096,402.874084 205.558258,396.949982 229.081894,391.079895 
	C237.317368,389.024841 241.924118,392.034363 241.338120,398.965179 
	C240.922531,403.880615 237.426910,405.418121 233.288849,406.443909 
	C210.717941,412.038635 188.162521,417.695892 165.605515,423.346558 
	C162.222946,424.193939 158.877777,425.195282 155.484116,425.992615 
	C149.545502,427.387909 144.885361,425.126678 143.881989,420.473022 
	C142.902374,415.929565 145.807114,412.169769 151.481812,410.647095 
	C153.565369,410.087982 155.653107,409.544464 158.135773,408.885376 
z"/>
<path fill="#000000" opacity="1.000000" stroke="none" 
	d="
M197.933060,437.715393 
	C211.061295,434.463531 223.778168,431.267395 236.507217,428.120483 
	C237.783920,427.804871 239.131683,427.686523 240.451233,427.650543 
	C245.573593,427.510773 248.537476,429.626343 249.234726,433.826385 
	C249.895859,437.808899 247.588776,441.549469 243.082565,442.828857 
	C236.378983,444.732086 229.570160,446.264984 222.804977,447.950928 
	C204.123901,452.606384 185.443375,457.264008 166.759872,461.909698 
	C162.879959,462.874420 159.456482,462.261749 157.050797,458.750824 
	C154.999161,455.756714 155.463654,452.740784 157.341370,449.878906 
	C158.714310,447.786346 160.975555,447.107513 163.266037,446.525360 
	C174.688324,443.622070 186.105896,440.700287 197.933060,437.715393 
z"/>
</svg>